/vscmnt/brussel_pixiu_data/_data_brussel/112/vsc11236/PredSimResults/SUBJ04_Dhondt2024_3seg/weighted/worker_01.mot
version=1
nRows=4
nColumns=124
inDegrees=yes
endheader
                time	         pelvis_tilt	         pelvis_list	     pelvis_rotation	           pelvis_tx	           pelvis_ty	           pelvis_tz	       hip_flexion_r	     hip_adduction_r	      hip_rotation_r	        knee_angle_r	       ankle_angle_r	    subtalar_angle_r	         mtp_angle_r	       hip_flexion_l	     hip_adduction_l	      hip_rotation_l	        knee_angle_l	       ankle_angle_l	    subtalar_angle_l	         mtp_angle_l	    lumbar_extension	      lumbar_bending	     lumbar_rotation	          arm_flex_r	           arm_add_r	           arm_rot_r	        elbow_flex_r	          arm_flex_l	           arm_add_l	           arm_rot_l	        elbow_flex_l	glut_med1_r/activation	glut_med2_r/activation	glut_med3_r/activation	glut_min1_r/activation	glut_min2_r/activation	glut_min3_r/activation	semimem_r/activation	semiten_r/activation	bifemlh_r/activation	bifemsh_r/activation	    sar_r/activation	add_long_r/activation	add_brev_r/activation	add_mag1_r/activation	add_mag2_r/activation	add_mag3_r/activation	    tfl_r/activation	   pect_r/activation	   grac_r/activation	glut_max1_r/activation	glut_max2_r/activation	glut_max3_r/activation	iliacus_r/activation	  psoas_r/activation	quad_fem_r/activation	    gem_r/activation	   peri_r/activation	rect_fem_r/activation	vas_med_r/activation	vas_int_r/activation	vas_lat_r/activation	med_gas_r/activation	lat_gas_r/activation	 soleus_r/activation	tib_post_r/activation	flex_dig_r/activation	flex_hal_r/activation	tib_ant_r/activation	per_brev_r/activation	per_long_r/activation	per_tert_r/activation	ext_dig_r/activation	ext_hal_r/activation	glut_med1_l/activation	glut_med2_l/activation	glut_med3_l/activation	glut_min1_l/activation	glut_min2_l/activation	glut_min3_l/activation	semimem_l/activation	semiten_l/activation	bifemlh_l/activation	bifemsh_l/activation	    sar_l/activation	add_long_l/activation	add_brev_l/activation	add_mag1_l/activation	add_mag2_l/activation	add_mag3_l/activation	    tfl_l/activation	   pect_l/activation	   grac_l/activation	glut_max1_l/activation	glut_max2_l/activation	glut_max3_l/activation	iliacus_l/activation	  psoas_l/activation	quad_fem_l/activation	    gem_l/activation	   peri_l/activation	rect_fem_l/activation	vas_med_l/activation	vas_int_l/activation	vas_lat_l/activation	med_gas_l/activation	lat_gas_l/activation	 soleus_l/activation	tib_post_l/activation	flex_dig_l/activation	flex_hal_l/activation	tib_ant_l/activation	per_brev_l/activation	per_long_l/activation	per_tert_l/activation	ext_dig_l/activation	ext_hal_l/activation	 ercspn_r/activation	 ercspn_l/activation	 intobl_r/activation	 intobl_l/activation	 extobl_r/activation	 extobl_l/activation	
          1.28594189	         -2.92631635	         -0.42000924	          1.45639402	          1.15734770	          0.87504549	         -0.00136601	         25.78727925	          3.63004385	          7.90050102	         -6.97698171	          3.41142356	         -4.02605840	          0.19654680	        -13.45976155	          3.43404615	         13.03258075	         -6.81726370	          9.28425600	          2.66848999	         12.40297901	         -3.92054977	         -0.66953351	         -1.16025448	         -3.68429427	        -13.46438615	         13.97428533	         22.42795898	          2.28627985	        -13.52682822	         19.19920327	         40.41235071	          0.03707374	          0.01070648	          0.01000041	          0.01474585	          0.01267103	          0.01000127	          0.01214335	          0.04484817	          0.06457708	          0.01000023	          0.01000025	          0.09723475	          0.16960353	          0.12900625	          0.14164069	          0.08147060	          0.01000052	          0.01958920	          0.05599270	          0.01214303	          0.01214462	          0.03644347	          0.01587772	          0.01414082	          0.01270510	          0.01000105	          0.01000024	          0.01000023	          0.07102097	          0.07415367	          0.06109276	          0.01000005	          0.01000011	          0.01000007	          0.01000055	          0.01000121	          0.01000154	          0.20668576	          0.15131149	          0.09897597	          0.13720265	          0.31668530	          0.03590079	          0.39803445	          0.20866058	          0.10192173	          0.35328373	          0.34545873	          0.23471834	          0.01211779	          0.01000222	          0.01000150	          0.04607155	          0.12079036	          0.01000013	          0.01000019	          0.01000053	          0.01000188	          0.01000100	          0.35532841	          0.01000077	          0.01000085	          0.03206034	          0.02141117	          0.01000141	          0.23405808	          0.33623564	          0.01000039	          0.01006245	          0.09439831	          0.15452713	          0.01000029	          0.01000035	          0.01000029	          0.37796449	          0.41233633	          0.35641196	          0.22011929	          0.25625829	          0.31392629	          0.01242459	          0.03782041	          0.16643583	          0.01474596	          0.01474633	          0.01415252	          0.01474583	          0.01000000	          0.04946155	          0.01000006	          0.07292263	          0.01000007	
          1.29880131	         -2.93008773	         -0.65211897	          1.58149220	          1.17115798	          0.87470252	         -0.00120533	         24.76819274	          4.05648474	          8.12059348	         -5.85775325	          2.37011183	         -4.40423654	          0.21144789	        -13.60703922	          3.24627830	         12.68136433	         -8.19604927	          8.91105426	          3.08501199	         13.46972730	         -3.79398297	         -0.23155719	         -1.22488033	         -4.37827290	        -13.47436673	         13.49709255	         21.37279724	          1.84183123	        -13.54659403	         19.20957435	         42.54411757	          0.03053038	          0.01000047	          0.01000007	          0.01214350	          0.01214281	          0.01000049	          0.01000012	          0.03693271	          0.05317953	          0.01000004	          0.01000016	          0.08007337	          0.16268148	          0.14244329	          0.12483933	          0.06709171	          0.01000018	          0.02392797	          0.04611075	          0.01000035	          0.01000125	          0.05614787	          0.01307540	          0.01164505	          0.08509747	          0.01000037	          0.01000027	          0.01325176	          0.06842994	          0.06652266	          0.05792324	          0.01000000	          0.01000001	          0.01000000	          0.01000003	          0.01000023	          0.01000018	          0.21001318	          0.14598843	          0.09215168	          0.16406418	          0.34364953	          0.03795299	          0.42990513	          0.17183286	          0.08393295	          0.29093329	          0.31563245	          0.19329158	          0.01000069	          0.01000018	          0.01000017	          0.03794012	          0.10104438	          0.01000018	          0.01000018	          0.01000050	          0.01000157	          0.01000049	          0.34061966	          0.01000100	          0.01000146	          0.02640276	          0.01763583	          0.01000275	          0.21125539	          0.28016824	          0.01689893	          0.01798364	          0.07773739	          0.15888162	          0.01000095	          0.01000112	          0.01000090	          0.34600163	          0.37917082	          0.34175131	          0.21439678	          0.25559869	          0.30777662	          0.01023170	          0.03114529	          0.15891332	          0.01214337	          0.01214366	          0.01165469	          0.01214325	          0.01000006	          0.04073178	          0.01474580	          0.06005206	          0.01000005	
          1.31166073	         -2.92964294	         -0.89791761	          1.69712262	          1.18529168	          0.87442387	         -0.00105062	         23.72413977	          4.44337377	          8.36374421	         -5.31493918	          1.03185686	         -4.76830516	          0.22287988	        -13.69832832	          3.04460820	         12.31779463	         -9.69040164	          8.38964190	          3.51818798	         14.60176268	         -3.64862935	          0.22855105	         -1.28259452	         -5.06424958	        -13.49160758	         13.21156073	         20.25281128	          1.33263056	        -13.56222055	         19.21850925	         44.64127629	          0.02514190	          0.01000006	          0.01000137	          0.01000027	          0.01000012	          0.01000015	          0.03741930	          0.05705660	          0.04379358	          0.02174428	          0.01000475	          0.06594078	          0.13396889	          0.11730278	          0.10280582	          0.05525032	          0.01000027	          0.01970540	          0.06914420	          0.01000038	          0.01000119	          0.04623802	          0.01474571	          0.01474579	          0.09100948	          0.01979590	          0.01000122	          0.01091289	          0.05635234	          0.05478170	          0.04770003	          0.01474609	          0.01526683	          0.01214323	          0.01474570	          0.01214666	          0.01474481	          0.17294670	          0.12485843	          0.09775059	          0.13510754	          0.34858430	          0.03125452	          0.38521547	          0.14150502	          0.06911911	          0.27929868	          0.25992474	          0.15917639	          0.01003617	          0.01000082	          0.01000048	          0.03124386	          0.08321067	          0.01000043	          0.01000034	          0.01000074	          0.01000217	          0.01000081	          0.28050248	          0.01000304	          0.01000167	          0.02174302	          0.01452352	          0.01000067	          0.19515898	          0.24454847	          0.01391641	          0.01480992	          0.06401706	          0.18144365	          0.01000017	          0.01000021	          0.01000017	          0.31343925	          0.34314020	          0.32123950	          0.20217464	          0.24497173	          0.30119289	          0.01000001	          0.02564834	          0.16471872	          0.01000017	          0.01000036	          0.01000009	          0.01000002	          0.01014630	          0.03354284	          0.01214323	          0.04945309	          0.01496875	
          1.32452014	         -2.92596376	         -1.16265477	          1.79844445	          1.19966315	          0.87422844	         -0.00090105	         22.65957494	          4.77901252	          8.62205414	         -4.91140010	         -0.51429839	         -5.12248979	          0.22281450	        -13.71645503	          2.82394053	         11.94878099	        -11.31303676	          7.70761281	          3.97267365	         15.78147281	         -3.49105249	          0.71573015	         -1.33082360	         -5.71959017	        -13.51602458	         13.14319870	         19.05265108	          0.76761766	        -13.57121688	         19.21673140	         46.70176638	          0.17908986	          0.17375376	          0.17313788	          0.05737236	          0.01000147	          0.12755040	          0.03081501	          0.04698655	          0.03606424	          0.01790655	          0.01000317	          0.05430250	          0.11032391	          0.09659939	          0.08466113	          0.04549897	          0.01000052	          0.01622771	          0.05694060	          0.01000055	          0.01000028	          0.03807727	          0.01214326	          0.01214328	          0.07494671	          0.01630228	          0.06587742	          0.01000009	          0.04640645	          0.04511304	          0.03928124	          0.01214347	          0.01257231	          0.01000007	          0.01214316	          0.01000292	          0.01214251	          0.29628088	          0.18223487	          0.09739100	          0.32059307	          0.43333784	          0.02573831	          0.39611855	          0.11652993	          0.05691985	          0.37252646	          0.21404919	          0.13108238	          0.01000114	          0.01000015	          0.01000016	          0.02572946	          0.06852443	          0.01000007	          0.01000007	          0.01000020	          0.01000070	          0.01000028	          0.23099504	          0.01000040	          0.01000039	          0.01790577	          0.01214944	          0.01000076	          0.16071536	          0.22918167	          0.01146086	          0.01219652	          0.05271829	          0.15873918	          0.01000026	          0.01000029	          0.01000021	          0.26132701	          0.29379230	          0.29618129	          0.18518425	          0.20173595	          0.24952430	          0.01000002	          0.02112160	          0.17105699	          0.01000010	          0.01000002	          0.01000016	          0.01674027	          0.01265805	          0.02839242	          0.01000001	          0.04072481	          0.01232683	
